<svg xmlns="http://www.w3.org/2000/svg" width="898.762" height="898.762"><path fill="#d83027" d="M706.96 164.791L564.657 307.105 706.962 449.41c78.588-78.59 78.588-206.019-.001-284.619z"/><path fill="#3961ad" d="M706.96 449.41l-71.155 71.151-71.15 71.156L706.963 734.02c78.588-78.59 78.588-206.01-.001-284.61z"/><path fill="#faa61b" d="M706.96 449.41c-78.505-78.506-205.737-78.59-284.353-.258l-.263-.26-.252.245.273.273c-75.58 75.58-196.31 78.464-275.356 8.681l133.063 133.07-.035.037c78.507 78.504 205.74 78.584 284.349.256l.269.264 71.149-71.156zm-568.934-.32L280.03 307.084l.01.01L138.036 449.1z"/><path fill="#098845" d="M422.367 449.41l-.273-.273.252-.245.263.26c78.615-78.333 205.848-78.248 284.354.258L564.656 307.105c-78.597-78.6-206.021-78.6-284.618 0l.008.01-142.008 142.003-.287.292a198.877 198.877 0 009.259 8.681c79.048 69.783 199.777 66.898 275.357-8.68zm-112.283-63.602c16.589 0 30.038 13.446 30.038 30.038 0 16.59-13.45 30.035-30.038 30.035-16.593 0-30.038-13.446-30.038-30.035 0-16.592 13.446-30.038 30.038-30.038z"/><path fill="#3961ad" d="M310.084 445.881c16.589 0 30.038-13.446 30.038-30.035 0-16.592-13.45-30.038-30.038-30.038-16.593 0-30.038 13.446-30.038 30.038 0 16.59 13.446 30.035 30.038 30.035z"/></svg>
