<?xml version="1.0" encoding="utf-8"?>
<!-- Generator: Adobe Illustrator 16.0.0, SVG Export Plug-In . SVG Version: 6.00 Build 0)  -->
<!DOCTYPE svg PUBLIC "-//W3C//DTD SVG 1.1//EN" "http://www.w3.org/Graphics/SVG/1.1/DTD/svg11.dtd">
<svg version="1.1" id="Vrstva_1" xmlns="http://www.w3.org/2000/svg" xmlns:xlink="http://www.w3.org/1999/xlink" x="0px" y="0px"
	 width="1417.32px" height="1417.32px" viewBox="0 0 1417.32 1417.32" enable-background="new 0 0 1417.32 1417.32"
	 xml:space="preserve">
<path fill="#FFFFFF" d="M1097.849,930.926c47.979-70.6,75.979-154.982,75.979-245.71c0-247.864-208.27-448.797-465.172-448.797
	c-256.902,0-465.161,200.934-465.161,448.797c0,247.86,208.259,448.78,465.161,448.78c69.657,0,135.67-14.871,194.992-41.342
	l260.195,66.791L1097.849,930.926z"/>
<g>
	<path fill="#D83027" d="M939.108,400.595L796.803,542.909l142.306,142.305C1017.697,606.623,1017.697,479.195,939.108,400.595z"/>
	<path fill="#3961AD" d="M939.108,685.214l-71.156,71.151l-71.149,71.156l142.306,142.303
		C1017.697,891.234,1017.697,763.813,939.108,685.214z"/>
	<path fill="#FAA61B" d="M939.108,685.214c-78.506-78.506-205.738-78.591-284.354-0.258l-0.263-0.26l-0.252,0.245l0.273,0.273
		c-75.58,75.579-196.309,78.464-275.356,8.681l133.063,133.07l-0.035,0.037c78.507,78.504,205.74,78.584,284.349,0.256l0.269,0.264
		l0,0l71.149-71.156L939.108,685.214z"/>
	
		<rect x="340.772" y="613.908" transform="matrix(0.7071 -0.7071 0.7071 0.7071 -304.8809 491.7585)" fill="#FAA61B" width="200.826" height="0.014"/>
	<path fill="#098845" d="M654.514,685.214l-0.273-0.273l0.252-0.245l0.263,0.26c78.615-78.333,205.848-78.248,284.354,0.258
		L796.803,542.909c-78.597-78.6-206.021-78.6-284.618,0l0.008,0.009L370.185,684.922l-0.287,0.292
		c3.011,3.016,6.107,5.903,9.259,8.681C458.205,763.678,578.934,760.793,654.514,685.214z M542.231,621.612
		c16.589,0,30.038,13.446,30.038,30.038c0,16.589-13.449,30.035-30.038,30.035c-16.593,0-30.038-13.446-30.038-30.035
		C512.193,635.058,525.639,621.612,542.231,621.612z"/>
	<path fill="#3961AD" d="M542.231,681.685c16.589,0,30.038-13.446,30.038-30.035c0-16.592-13.449-30.038-30.038-30.038
		c-16.593,0-30.038,13.446-30.038,30.038C512.193,668.239,525.639,681.685,542.231,681.685z"/>
</g>
</svg>
