<?xml version="1.0" standalone="no"?>
<!DOCTYPE svg PUBLIC "-//W3C//DTD SVG 20010904//EN"
 "http://www.w3.org/TR/2001/REC-SVG-20010904/DTD/svg10.dtd">
<svg version="1.0" xmlns="http://www.w3.org/2000/svg"
 width="1417.000000pt" height="1417.000000pt" viewBox="0 0 1417.000000 1417.000000"
 preserveAspectRatio="xMidYMid meet">
<metadata>
Created by potrace 1.11, written by Peter Selinger 2001-2013
</metadata>
<g transform="translate(0.000000,1417.000000) scale(0.100000,-0.100000)"
fill="#000000" stroke="none">
<path d="M9967 10425 l-1114 -1114 -58 55 c-311 295 -670 519 -1065 667 -88
33 -315 103 -363 113 -11 2 -66 13 -121 25 -56 11 -117 22 -136 25 -19 2 -49
6 -66 9 -17 2 -57 7 -90 10 -32 3 -84 8 -114 11 -73 7 -347 7 -435 -1 -147
-12 -264 -28 -380 -51 -66 -14 -131 -27 -145 -30 -67 -13 -373 -109 -395 -124
-5 -3 -32 -15 -60 -25 -71 -26 -265 -120 -361 -176 -183 -105 -364 -235 -523
-374 -25 -22 -569 -562 -1209 -1200 l-1162 -1160 52 -49 c29 -27 80 -76 114
-108 34 -32 65 -54 69 -50 5 4 5 2 2 -4 -9 -15 2116 -2133 2238 -2231 377
-301 794 -506 1245 -612 211 -49 249 -55 460 -76 121 -11 489 -12 560 -1 19 3
58 8 85 11 28 3 61 8 75 10 14 2 47 6 74 10 27 3 52 8 55 10 3 1 22 6 41 9 57
9 74 13 197 46 65 17 150 43 188 56 39 14 86 30 105 36 19 5 39 14 45 19 5 5
15 9 22 9 27 0 319 144 443 218 63 37 235 153 274 183 25 19 211 173 216 178
3 3 31 30 61 59 l56 54 1116 -1116 c1077 -1076 1117 -1116 1134 -1098 386 401
648 855 791 1372 35 125 75 320 87 425 47 406 28 772 -60 1145 -72 310 -213
647 -388 929 -73 116 -215 312 -279 383 -111 123 -159 178 -159 183 0 4 23 32
53 64 29 31 78 86 108 121 30 36 57 67 60 70 31 30 184 252 257 375 166 278
320 679 368 955 3 19 10 53 15 75 8 36 20 122 35 245 31 249 13 648 -41 920
-34 173 -123 476 -168 575 -8 17 -28 64 -46 105 -27 62 -105 217 -145 288 -30
53 -115 186 -159 247 -88 124 -153 204 -288 351 l-57 63 -1114 -1114z m754
-2982 c13 -16 12 -17 -3 -4 -10 7 -18 15 -18 17 0 8 8 3 21 -13z"/>
</g>
</svg>
